<svg xmlns="http://www.w3.org/2000/svg" width="128" height="128" fill="none" viewBox="0 0 128 128"><path fill="#171717" d="M71.834 86.053q-1.087.928-2.164 2.505a19.2 19.2 0 0 0-1.825 3.344 15.2 15.2 0 0 0-.912 3.522q-.23 1.692.247 2.982.54 1.224 1.914 1.785 1.436.494 4.088-.136 2.585-.694 5.352-2.172a32.3 32.3 0 0 0 5.07-3.335q2.305-1.923 3.763-3.961 1.457-2.039 1.427-3.79-.033-1.883-1.354-3.159-1.255-1.276-3.22-2.216-1.9-1.005-4.251-1.744a104 104 0 0 1-4.445-1.675q-2.094-.939-3.738-2.143-1.644-1.205-2.195-3.013-.757-2.454.422-5.592 1.242-3.203 3.655-6.297 2.415-3.093 5.681-5.618 3.267-2.589 6.558-3.75 3.356-1.162 6.288-.565 2.998.597 4.936 3.81.438-.982 1.13-2.227.758-1.247 1.451-2.428t1.327-2.101q.697-.921 1.083-1.188.578-.399 1.884.032 1.305.367 2.423 1.192 1.182.758 1.783 1.722.666.961-.103 1.56-1.214 1.124-2.735 3.23a52 52 0 0 0-3.037 4.597 74 74 0 0 0-2.765 5.243 50 50 0 0 0-2.184 5.103q-.803 2.35-1.03 4.173-.164 1.756.562 2.458-.639.596-1.68.483-1.041-.176-2.028-.873a7.4 7.4 0 0 1-1.722-1.918q-.67-1.222-.502-2.718.165-1.821.839-4.04.74-2.221 1.416-4.44.674-2.285.964-4.303.353-2.085-.259-3.631-.34-.839-1.76-.424-1.358.348-3.283 1.615-1.927 1.203-4.103 3.059a43 43 0 0 0-3.956 3.965 30.5 30.5 0 0 0-3.174 4.146q-1.261 2.1-1.428 3.726t1.216 2.706q1.446 1.013 3.67 2.013a454 454 0 0 0 4.97 1.991 22.7 22.7 0 0 1 4.914 2.512 12.3 12.3 0 0 1 3.765 3.7q1.467 2.183 1.33 5.496-.036 1.624-1.172 3.526-1.07 1.902-2.92 3.817t-4.286 3.711a37.5 37.5 0 0 1-5.203 3.208 36 36 0 0 1-5.671 2.436q-2.906.96-5.628 1.202-2.335.171-3.963-.126-1.629-.296-2.744-.926-1.312-.82-1.918-2.044-.606-1.223-.632-2.716a12.5 12.5 0 0 1 .398-3.253q.424-1.695 1.174-3.397a36 36 0 0 1 2.958-5.376q1.773-2.563 3.56-4.348.32-.265.776-.208.454-.007.783.246.328.189.399.513.135.323-.186.522M36.691 46.084q2.805-.445 4.688.379t3.075 2.598q1.25 1.695 1.846 4.125.664 2.418.891 5.187.297 2.757.33 5.626.024 2.801.003 5.328.023 1.47-.063 3.586-.017 2.106-.048 4.565.026 2.38.132 4.817.105 2.436.362 4.5.315 1.983.826 3.445.58 1.45 1.42 1.878 4.626-20.364 8.753-33.708l.392-1.271 1.66.59.905-2.55-1.717-.61c.262-.74.621-1.732 1.175-3.254l6.529 2.05-1.097 3.242A221 221 0 0 0 62.86 67.88a375 375 0 0 0-3.37 11.472 514 514 0 0 0-2.876 10.621 726 726 0 0 0-2.13 8.68q-1.54.456-3.327.247a10.7 10.7 0 0 1-3.43-.859 14 14 0 0 1-3.073-1.687q-1.368-1.115-2.143-2.465-.561-.891-.923-2.728a74 74 0 0 1-.535-4.262q-.173-2.427-.243-5.08a160 160 0 0 1-.071-5.317q-.001-2.665-.017-4.975.042-2.391.067-4.008.08-3.027.05-6.317.028-3.371-.395-6.037-.355-2.679-1.24-4.291-.819-1.623-2.449-1.295-1.767.351-3.502 2.237-1.677 1.808-3.133 4.563-1.388 2.745-2.405 6.06a42.5 42.5 0 0 0-1.477 6.614q-.39 3.288-.13 6.26.26 2.975 1.417 4.964.876 1.545 2.809 1.8 1.922.185 3.585-1.27-.043 1.059-1.166 1.938-1.122.878-2.72 1.412-1.61.465-3.51.416a8.25 8.25 0 0 1-3.58-.906q-1.609-.867-2.733-2.652t-1.18-4.79q-.135-4.396.975-9.34 1.1-5.012 3.355-9.365t5.615-7.48q3.35-3.195 7.717-3.956M69.73 45.398l-2.071 6.776-5.54-1.694 2.072-6.776c.702-.094.96-.941.96-.941l.519-1.694s.258-.848-.27-1.318c-.53-.47.431-1.412.431-1.412l5.847 1.788s-.095 1.412-.431 1.412c-.337 0-1.062.17-1.269.847l-.518 1.694c-.259.847.27 1.318.27 1.318M69.95 37.897c-2.64-1.201-3.478-3.778-1.899-5.831.296-.385.536-.626 1.267-1.272 1.864-1.647 2.485-2.803 2.145-3.994-.036-.126-.025-.12.099.043.817 1.082.965 2.438.402 3.695-.323.723-.724 1.24-1.658 2.137-.788.757-1.091 1.156-1.299 1.71-.479 1.278-.114 2.554.989 3.452.203.165.198.17-.046.06m-3.982-3.923c-1.067-1.265-1.34-2.794-.793-4.442.325-.98.85-1.704 2.356-3.25 1.12-1.15 1.587-1.804 1.894-2.657.453-1.255.221-2.435-.689-3.503-.085-.1-.15-.181-.145-.182.014-.001.327.206.548.364 2.166 1.544 2.532 4.157.899 6.419-.334.461-.729.88-1.743 1.848-.768.733-1.074 1.057-1.405 1.49-1.011 1.323-1.294 2.726-.794 3.941.1.242.1.242-.128-.028"/></svg>