<svg xmlns="http://www.w3.org/2000/svg" width="512" height="512" fill="none" viewBox="0 0 512 512"><path fill="#7a7a7a" d="M246.943 52.667c112.298 0 203.333 91.035 203.333 203.333l10.544 7.333q.123-3.651.123-7.333c0-118.189-95.811-214-214-214-98.088 0-180.762 65.992-206.047 156l12.77-5.333q.301-.918.61-1.831c27.162-80.337 103.161-138.17 192.667-138.17M56.98 328.667c29.246 76.41 103.268 130.666 189.963 130.666 62.233 0 117.936-27.958 155.235-72L416.945 386c-39.11 51.067-100.71 84-170.002 84-94.17 0-174.134-60.826-202.746-145.333z"/><path fill="#7a7a7a" d="M278.913 66.004A192.67 192.67 0 0 0 64.887 192.945l-.688 2.021 3.207-1.148a189.998 189.998 0 0 1 369.516 59.515l2.687 2.667A192.67 192.67 0 0 0 278.913 66.004M283.488 445.169l2.094-.416a192.67 192.67 0 0 0 105.953-61.42l-4.792 1.334a190 190 0 0 1-316.17-58l-3.354-1.242.78 1.986a192.67 192.67 0 0 0 86.553 97.658l1.879 1.013a192.67 192.67 0 0 0 127.057 19.087"/><path fill="#7a7a7a" d="M239.385 367.31q-1.997 2.904-3.553 7.344a47.3 47.3 0 0 0-2.211 9.123q-.5 4.638.074 8.967.532 4.175 2.49 6.943 2.069 2.57 5.696 3.027 3.736.26 9.645-2.932 5.71-3.303 11.354-8.582t9.945-11.174q4.259-6.048 6.429-11.831 2.17-5.781.979-9.934-1.278-4.46-5.237-6.655-3.804-2.238-9.08-3.222-5.166-1.182-11.232-1.44a256 256 0 0 1-11.649-1.153q-5.583-.896-10.266-2.716t-7.148-5.773q-3.369-5.36-2.563-13.58.916-8.418 4.687-17.323 3.772-8.904 9.94-16.998 6.123-8.248 13.218-13.111 7.248-4.908 14.61-5.355 7.516-.49 14.181 5.921.416-2.616 1.269-6.023a475 475 0 0 0 1.906-6.705 86 86 0 0 1 1.818-5.848q1.075-2.639 1.821-3.518 1.12-1.32 4.504-1.126 3.342.042 6.529 1.291 3.298 1.051 5.343 2.962 2.2 1.866.751 3.779-2.172 3.453-4.452 9.433-2.324 5.826-4.296 12.883a182 182 0 0 0-3.239 14.245q-1.42 7.231-1.943 13.54-.411 6.11.208 10.593.73 4.284 2.906 5.491-1.14 1.825-3.69 2.224-2.593.244-5.385-.786-2.837-1.185-5.322-3.468-2.376-2.48-2.929-6.151-.773-4.438-.581-10.153.346-5.758.539-11.473.147-5.868-.45-10.856-.489-5.187-2.931-8.481-1.342-1.779-4.462.114-3.01 1.695-6.785 5.941-3.82 4.09-7.815 9.897a105 105 0 0 0-6.889 11.963q-3.094 6.047-4.912 11.894-1.665 5.804-1.024 9.781.642 3.978 4.621 5.666 4.09 1.49 10.024 2.452 6.045.763 13.1 1.57 7.012.652 13.3 2.844 6.396 1.994 11.324 6.407 4.884 4.259 6.671 12.235.949 3.89-.541 9.143-1.335 5.211-4.517 10.95-3.18 5.74-7.835 11.567a92 92 0 0 1-10.341 10.955 89 89 0 0 1-11.947 9.418q-6.303 4.138-12.631 6.452-5.448 1.895-9.514 2.228t-7.121-.454q-3.65-1.118-5.872-3.643-2.222-2.526-3.236-6.063-1.059-3.691-1.129-7.999a52.4 52.4 0 0 1 .629-8.835 89 89 0 0 1 3.613-14.685q2.586-7.233 5.702-12.621.592-.835 1.713-.99 1.077-.309 2.022.086.901.24 1.276.966.528.681-.109 1.362M366.358 312.925q.153-1.209 1.383-1.562 1.231-.353 2.528.108 1.253.306 2.375 1.316 1.077.856.925 2.065-.785 6.55-2.647 13.409a132 132 0 0 1-4.251 13.037q-2.39 6.178-5.022 10.928-2.634 4.749-5.114 7.125-1.692 1.65-4.504 2.29a25 25 0 0 1-5.736.313q-2.878-.173-5.319-1.137-2.44-.965-3.343-2.371-1.365-2.438-1.787-6.811a85 85 0 0 1-.382-8.879q.193-4.55.454-8.286.26-3.737.259-4.901-2.327 3.497-4.98 9.917a221 221 0 0 0-4.778 13.52 455 455 0 0 0-4.184 13.85q-1.752 6.661-2.43 10.684-.328 1.759-2.437 2.53a15.1 15.1 0 0 1-4.834.554q-2.726-.217-4.815-1.117-2.242-.854-2.222-2.525-.093-4.967.471-13.451.52-8.637 1.564-18.924a677 677 0 0 1 2.529-21.365q1.594-11.276 3.54-21.321 2.056-10.245 4.378-18.4 2.432-8.354 5.153-12.796 1.426-2.572 4.481-2.949a13 13 0 0 1 5.912.302q2.858.678 4.705 2.479 1.848 1.8 1.213 3.647-1.735 1.496-4.652 8.158-2.763 6.618-5.764 16.467-2.849 9.804-5.232 21.807a168.5 168.5 0 0 0-3.01 24.332 228 228 0 0 1 3.266-8.926 260 260 0 0 1 3.64-9.366q2.017-4.574 4.102-8.333 2.193-3.959 4.477-6.444 1.647-1.804 4.393-2.092 2.857-.486 5.561.236 2.704.723 4.508 2.369t1.454 3.911q-.502 3.472-1.421 8.397-.764 4.88-1.396 10.221a208 208 0 0 0-.782 10.044q-.15 4.703.777 7.934 3.007-2.86 5.619-7.104 2.568-4.398 4.716-9.675a115 115 0 0 0 3.726-11.388 268 268 0 0 0 2.933-11.827"/><path fill="#7a7a7a" d="M457.722 281.401q12.822-13.332 23.441-9.385-3.733 2.069-8.916 7.217l-5.093 5.455a86 86 0 0 0-4.742 5.521q-4.083 5.498-5.113 8.291-.306 2.418-1.423 6.067-1.008 3.452-2.981 8.178-1.929 4.882-4.233 9.037a62.4 62.4 0 0 1-5.092 7.785q-5.728 7.303-12.126 5.308-7.19-3.597-3.902-11.864 1.469-4.749 4.563-9.63 1.47-2.42 2.83-4.64a154 154 0 0 1 3.183-4.575 194 194 0 0 1 3.028-4.53q1.251-2.023 1.865-3.364.57-1.495.833-2.902.217-1.562.348-3.429a27 27 0 0 0-.092-3.802 200 200 0 0 1-.311-3.406q-.926-3.23-2.201-4.196-4.591 3.147-7.969 9.941-3.422 6.641-5.83 16.819a305 305 0 0 0-4.112 20.487 384 384 0 0 0-2.552 20.705q-.803 10.55-1.302 17.518-.3 7.077-.209 10.879-.151 2.374-3.975 2.971-3.67.553-7.363-.718-3.694-1.272-3.653-4.612.37-3.935.694-9.188a308 308 0 0 1 1.396-11.385q1.047-9.122 1.983-18.046a626 626 0 0 0 1.631-18.111q1.323-18.023-.685-26.768-1.807-5.141-5.015-4.721-3.56.356-8.064 2.645a31.5 31.5 0 0 0-4.261 2.554q-1.778 1.342-3.404 2.64 9.32 1.156 12.119 9.175 4.099 11.974 1.762 27.625-1.288 7.693-3.24 13.08-1.841 5.188-4.388 7.916-5.995 5.214-15.269 5.377-9.429.207-13.986-8.141-2.775-6.195-2.654-17.381.28-5.407.826-9.891.544-4.484 1.728-8.485 1.162-2.331 4.657-2.334 3.955-.136 6.727 1.4 3.166 1.756 2.772 3.865-.744 2.045-1.314 4.705l-1.049 5.627q-.895 6.749-.736 12.528.204 5.934 2.646 9.228.969 1.054 2.814.525.68-.528 1.537-1.606 1.01-1.122 1.909-3.21 4.824-11.038 5.121-22.774.385-11.429-3.181-16.898-3.785-5.073-11.184 2.208-1.01 1.123-3.889.949a31 31 0 0 1-2.858-.678l-2.594-.921q-2.772-1.536-3.85-3.557-1.343-1.778.964-3.605a115 115 0 0 1 10.058-7.878 131 131 0 0 1 11.18-6.867q11.554-6.143 21.556-4.35 3.144 1.095 5.717 2.522 2.528 1.272 4.376 3.072 3.894 3.711 4.621 5.666 2.191-6.288 7.021-12.666 4.279-6.553 11.729-6.692 15.847 1.281 17.176 11.72M306.407 174.643q.346-.901 1.351-1.162a5.3 5.3 0 0 1 2.374-.122q1.213.207 2.166 1.09.885.727.747 2.096.68 6.982-.354 14.73a85.3 85.3 0 0 1-3.266 14.904q-2.317 7.385-5.518 14.04-3.202 6.656-6.941 11.684-1.784 2.289-4.573 3.157-2.79.869-5.926.957a34 34 0 0 1-6.083-.655q-2.877-.586-4.905-1.365-4.35-1.8-6.953-6.806-2.671-5.161-3.82-11.937-1.303-6.706-1.257-14.572.047-7.868 1.064-15.233 1.174-7.434 3.284-13.605 2.11-6.17 4.793-9.794 1.698-2.063 3.568-2.896 1.802-.989 4.176-1.112 2.304-.279 4.956.222 2.738.276 6.083.655 4.782.672 6.067 4.397.764 1.716 1.305 6.706.696 4.92.353 10.864-.257 5.719-1.968 11.525-1.625 5.582-5.366 8.928-2.771 2.168-5.248 2.897-2.478.73-5.84.732-.085 1.906.368 5.441.383 3.378 1.304 6.705t2.187 5.752q1.197 2.269 3.051 1.817 2.703-.642 5.836-5.774 3.29-5.2 6.057-12.411 2.699-7.367 4.685-15.911 1.988-8.544 2.243-15.944m-20.728-4.596q-1.073 1.786-2.18 6.015-1.02 4.004-1.831 8.475a196 196 0 0 0-1.052 8.128q-.24 3.656.107 4.436 3.015-.783 4.382-4.006 1.522-3.294 1.936-7.401a34.2 34.2 0 0 0-.075-8.56q-.419-4.297-1.287-7.087"/><path fill="#7a7a7a" d="M252.21 202.509q6.095-8.13 11.048-11.27 4.884-3.296 11.262-2.399-2.303 1.96-5.783 6.311a128 128 0 0 0-6.527 9.258q-3.203 4.976-5.539 9.378-2.337 4.404-2.422 6.31-.102 2.287-.828 6.533-.569 4.177-1.934 9.082a145 145 0 0 1-3.2 10.018q-1.677 5.043-3.997 9.065-2.146 3.571-4.761 5.67-2.685 1.943-6.168 1.251-3.935-.864-5.184-3.67-1.094-2.876-.767-6.758.482-3.951 2.213-8.457 1.885-4.577 3.685-8.927a217 217 0 0 1 3.72-8.008q1.851-3.814 2.405-5.928.466-1.89.361-4.645a25.2 25.2 0 0 0-.663-5.683q-.486-2.772-1.389-4.799-.972-2.183-2.185-2.39-4.191 3.174-6.612 11.164t-3.419 18.336q-1.067 10.19-1.13 21.8.026 11.385.482 21.643.457 10.259 1.329 18.09.716 7.902 1.186 11.055.295 1.923-1.974 3.121-2.268 1.197-5.18 1.372-3.067.244-5.615-.863-2.635-.882-2.827-3.412-.28-3.985-.736-12.562a4304 4304 0 0 1-.827-19.061 2744 2744 0 0 1-.829-22.423 3990 3990 0 0 1-.812-22.804q-.423-11.02-.637-19.893-.282-9.027-.373-13.845-.208-2.149 1.974-3.12a10.6 10.6 0 0 1 4.868-1.234q2.686-.261 4.87.447 2.184.71 2.115 2.234a61 61 0 0 0-.031 4.125q.052 2.217.333 6.203a47 47 0 0 1 1.99-3.502q1.074-1.785 2.268-2.878a9.6 9.6 0 0 1 2.997-2.081q1.646-.92 4.175-1.112 4.298-.418 7.209-.594 2.841-.33 4.869.448t3.537 2.909q1.665 2.061 3.453 6.495"/><path fill="#7a7a7a" d="M207.838 214.793q.19-.833 1.507-1.232 1.403-.624 2.772-.487 1.525.069 2.634.882 1.196.588 1.059 1.958a592 592 0 0 1-1.724 14.591 196 196 0 0 1-2.623 15.927q-1.502 7.955-3.803 14.957-2.37 6.846-5.832 10.817-1.854 2.133-4.642 3.001a16.3 16.3 0 0 1-5.441.367 19.6 19.6 0 0 1-5.044-1.677q-2.305-1.402-3.295-3.204-1.422-2.356-2.43-7.138t-1.514-8.854q-.899 3.017-1.763 6.95a325 325 0 0 1-1.814 8.094 160 160 0 0 1-2.385 8.909 69 69 0 0 1-2.906 8.579q-.778 2.028-3.88 3.035-2.944.937-6.307.94-3.43-.155-6.36-1.278-3.155-1.21-3.884-3.689-2.17-6.132-2.816-13.878a92.6 92.6 0 0 1 .007-15.509q.427-7.85 2.052-15.112 1.78-7.33 4.307-12.566 1.92-3.658 4.277-5.08a10.5 10.5 0 0 1 5.11-1.528q2.686-.262 5.788.412 3.033.517 6.378.897a65 65 0 0 0 1.539-5.356 76 76 0 0 1 1.711-5.806q.468-1.888 2.945-2.619 2.633-.799 5.441-.367t4.957 1.903q2.237 1.246 1.908 3.447-1.275 11.403-1.425 19.877.006 8.405.598 13.932.749 5.457 1.86 7.952 1.266 2.425 2.357 1.939 3.05-1.544 5.763-12.653t4.918-31.333m-35.18 22.948q.19-.831-.504-2.391-.693-1.559-1.873-2.528-1.092-1.195-2.323-1.021t-2.112 2.808q-2.059 5.027-3.094 11.093a133 133 0 0 0-1.206 11.559q-.17 5.493.163 10.015.262 4.367 1.096 6.238 1.09-2.167 2.508-6.535a170 170 0 0 0 2.887-9.879 435 435 0 0 0 2.61-10.503q1.227-5.215 1.848-8.856M57.4 213.958q6.39-2.846 11.4-2.087 5.008.76 8.979 4.223 4.057 3.237 7.024 8.642 3.123 5.335 5.431 11.78a146 146 0 0 1 4.375 13.183 813 813 0 0 1 3.405 12.683q.99 3.483 2.137 8.577 1.303 5.024 2.797 10.897a370 370 0 0 0 3.387 11.382q1.805 5.735 3.732 10.482 2.014 4.522 4.164 7.674 2.307 3.082 4.577 3.567-1.975-51.43-.663-85.828l.122-3.277 4.328.345.53-6.645-4.476-.357c.151-1.929.373-4.522.72-8.497l16.85.717-.543 8.414q-1.394 14.072-2.078 29.321a923 923 0 0 0-.708 29.46q-.182 14.279-.069 27.119.199 12.615.465 22.025-3.378 2.064-7.761 2.707a26.3 26.3 0 0 1-8.716.144 34.3 34.3 0 0 1-8.39-2.056q-3.968-1.782-6.673-4.501-1.907-1.766-3.938-5.906-1.944-4.365-3.992-9.806a277 277 0 0 1-3.82-11.936 395 395 0 0 1-3.56-12.614 1981 1981 0 0 0-3.214-11.833q-1.425-5.718-2.398-9.582a432 432 0 0 0-3.909-15.073q-2.085-8.038-4.792-14.119-2.551-6.15-5.69-9.423-2.983-3.341-6.655-1.52-3.985 1.96-6.909 7.559-2.839 5.374-4.55 12.861-1.553 7.418-1.86 15.961-.306 8.544.704 16.687 1.167 8.074 3.684 14.986t6.54 10.913q3.069 3.117 7.834 2.491 4.695-.783 7.725-5.308.574 2.547-1.54 5.356-2.11 2.808-5.576 5.097-3.533 2.134-8.09 3.229-4.556 1.095-9.097.127-4.384-1.036-8.2-4.569-3.813-3.533-5.864-10.653-3.126-10.379-3.637-22.854-.579-12.633 2.013-24.435 2.59-11.802 8.597-21.389 5.938-9.742 15.847-14.341M130.718 171.004c-6.504-2.959-8.572-9.309-4.679-14.37.729-.948 1.32-1.542 3.123-3.134 4.593-4.059 6.123-6.91 5.284-9.844-.088-.31-.061-.298.245.107 2.013 2.665 2.377 6.007.992 9.106-.796 1.781-1.785 3.054-4.088 5.266-1.942 1.866-2.689 2.848-3.2 4.214-1.181 3.151-.281 6.295 2.435 8.508.501.407.49.421-.112.147m-9.814-9.667c-2.629-3.117-3.301-6.886-1.954-10.948.801-2.415 2.094-4.199 5.806-8.009 2.76-2.833 3.911-4.448 4.669-6.548 1.116-3.095.545-6.002-1.699-8.634-.208-.245-.369-.447-.356-.448.034-.004.804.507 1.35.897 5.337 3.804 6.239 10.245 2.214 15.818-.821 1.138-1.795 2.171-4.294 4.556-1.893 1.807-2.647 2.606-3.463 3.672-2.493 3.259-3.19 6.719-1.958 9.713.246.596.246.596-.315-.069M135.614 191.25l-.609 17.453-14.268-.498.609-17.454c1.611-.671 1.687-2.853 1.687-2.853l.152-4.363s.076-2.182-1.483-2.965.126-3.636.126-3.636l15.061.526s.674 3.422-.127 3.636c-.801.215-2.418 1.081-2.479 2.826l-.153 4.363c-.076 2.182 1.484 2.965 1.484 2.965M210.328 151.261q-1.036.378-2.37-.057-1.333-.434-2.391-1.939-1.075-1.55-2.044-3.649a60 60 0 0 1-1.871-4.58 95 95 0 0 1-2.057-6.352 134 134 0 0 1-1.605-6.516 97 97 0 0 1-1.006-5.712q-1.932.447-3.847.94t-3.903 1.064q-.603.168-1.145.365-.557.151-1.098.349-4.24 1.543-6.823 3.709-2.6 2.121-3.136 4.155-.275 1.07.07 2.018.508 1.398 2.232 2.201 1.751.742 4.363.2a33 33 0 0 0 2.399-.567 55 55 0 0 0 2.136-.726 38 38 0 0 0 1.923-.751q.825-.402 1.124-.562a1.4 1.4 0 0 1 .389-.193q.677-.246.775.024.1.272-.688.915-.996.77-2.432 1.6a19 19 0 0 1-3.058 1.42 15.2 15.2 0 0 1-4.122.887q-2.062.086-3.773-.823-1.682-.972-2.568-3.407-.755-2.075-.227-3.851.574-1.792 1.993-3.228a16.7 16.7 0 0 1 3.284-2.626 33 33 0 0 1 3.772-1.986 53 53 0 0 1 3.333-1.366 41 41 0 0 1 4.79-1.437 93 93 0 0 1 3.908-.912l.045-.016-.05-1.259q-.004-.152.132-.201.164-.11.299-.16 1.173-.426 1.935-.296.763.132 1.469.947l.008.304a95 95 0 0 1 2.403-.415 65 65 0 0 0 2.629-.497 43 43 0 0 1-.555-4.753q-.095-2.367.289-4.396.37-2.076 1.406-3.577 1.066-1.562 3.05-2.285 1.85-.674 3.249.504 1.382 1.131 2.186 3.341.591 1.624.813 3.637t.084 4.159a22 22 0 0 0 2.21-1.367q1.086-.804 1.639-1.669.537-.91.193-1.858a2.4 2.4 0 0 0-.21-.434.85.85 0 0 0-.389-.369q-.123-.058-.189-.238-.082-.227.189-.324.315-.116.611.135.712.558.96 1.234.492 1.353-.168 2.768-.63 1.353-1.996 2.515-1.365 1.161-3.12 1.953a23.6 23.6 0 0 1-1.807 5.561 13.5 13.5 0 0 1-3.382 4.602q.612 1.821 1.256 3.732.69 1.894 1.605 4.83-.034-2.9.154-4.909t.475-3.186q.316-1.239.856-2.56.57-1.382 1.833-1.841t1.952.311q.717.709 1.112 1.791.197.542.365 1.144.152.558.271 1.026.116.315.456 1.673.324 1.312.829 3.12a70 70 0 0 0 1.174 3.506q.46 1.263.96 2.358.485 1.05.989 1.734.894 1.054 1.616.791.36-.13.714-.566a3.5 3.5 0 0 0 .512-1.259q.192-.734.204-1.403.033-.47.033-1.033t-.062-1.152q-.016-.608.299-.722.226-.083.373.324.296.812.333 2.177a10.8 10.8 0 0 1-.438 3.429q-.47 1.653-2.185 2.276-1.488.541-2.6-.126-1.111-.668-2.063-2.161a12 12 0 0 1-.833-1.586 35 35 0 0 1-.669-1.698 41 41 0 0 1-1.166-3.764 54 54 0 0 0-1.014-3.769q-.336-1.205-.841-1.89-.46-.7-.956-.521-.541.198-.93 1.514-.406 1.272-.512 3.506-.122 2.19.223 4.823.328 2.588 1.248 5.113.558 1.534 1.404 3.014a5.3 5.3 0 0 1-.648.747q-.414.406-.82.554-.721.262-.931-.172-.985-1.583-2.121-4.285a123 123 0 0 1-2.171-5.544 202 202 0 0 1-1.531-4.346q-.65-2.064-1.063-3.342-.443.467-.759.582-.315.115-.398-.11-.23-.632.869-1.543a137 137 0 0 1-1.092-3.842 140 140 0 0 1-.985-3.83q-2.563.677-5.069 1.232.305 2.24.867 5.61.609 3.355 1.438 7.036a84 84 0 0 0 1.86 6.935q.164.45.299.963l.378 1.038a39 39 0 0 0 1.268 3.063q.738 1.468 1.567 2.341t1.731.545a3 3 0 0 0 .881-.526q.43-.36.501-.59l.315-.115q.353 1.25-.184 2.161a2.62 2.62 0 0 1-1.439 1.239m2.463-34.916 1.263-.46a20.8 20.8 0 0 0-.153-4.49q-.288-2.194-.863-3.773-.606-1.668-1.436-2.542-.828-.873-1.73-.545-1.445.526-2.013 2.47-.541 1.882-.433 4.704.107 2.82.711 6.024 2.489-.6 4.654-1.388m-2.556 9.818q1.476-1.559 2.328-3.707a21.4 21.4 0 0 0 1.229-4.483q-1.308.476-2.649.862a83 83 0 0 0-2.62.8q.394 1.645.805 3.334.439 1.628.907 3.194"/><path fill="#7a7a7a" d="M236.568 139.872q-2.165.788-3.995-.028-1.8-.877-3.138-2.586-1.308-1.772-1.998-3.666a22.6 22.6 0 0 1-1.125-4.494q-.353-2.374-.063-4.524.336-2.164 1.43-3.789 1.078-1.67 3.108-2.408 1.443-.527 2.567.036 1.125.56 1.732 2.23.82 2.256.333 4.425a9.6 9.6 0 0 1-1.734 3.798q-1.274 1.69-2.931 2.752l.082.226a17 17 0 0 0 1.625 3.342q.981 1.43 2.199 2.111 1.247.62 2.69.094 1.76-.64 2.181-2.429.405-1.833.126-4.285a1.1 1.1 0 0 1 .02-.365q.07-.23.16-.263.406-.148.574.455.308 1.267.296 2.498-.012 1.23-.183 2.161-.349 1.71-1.304 2.875-.893 1.194-2.652 1.834m-6.146-9.307a5.9 5.9 0 0 0 2.017-2.318 8 8 0 0 0 .749-3.133 7.7 7.7 0 0 0-.435-3.162l-.083-.226a4.6 4.6 0 0 0-.828-1.435q-.489-.639-1.165-.393-.812.296-1.148 1.337-.308.98-.315 2.362.038 1.366.243 2.773.205 1.405.464 2.538.303 1.116.484 1.611z"/></svg>